HIERARCHY
ROOT Hips
{
  OFFSET 265.287 66.7526 -254.649
  CHANNELS 6 Xposition Yposition Zposition Zrotation Xrotation Yrotation
  JOINT LeftUpLeg
  {
    OFFSET 8.64259 1.95398 -2.38835
    CHANNELS 3 Zrotation Xrotation Yrotation
    JOINT LeftLeg
    {
      OFFSET 43.7702 0 0
      CHANNELS 3 Zrotation Xrotation Yrotation
      JOINT LeftFoot
      {
        OFFSET 40.6238 0 0
        CHANNELS 3 Zrotation Xrotation Yrotation
        JOINT LeftToeBase
        {
          OFFSET 12.7242 0 0
          CHANNELS 3 Zrotation Xrotation Yrotation
          End Site
          {
            OFFSET 0 0 0
          }
        }
      }
    }
  }
  JOINT RightUpLeg
  {
    OFFSET -8.2249 1.95398 -2.59336
    CHANNELS 3 Zrotation Xrotation Yrotation
    JOINT RightLeg
    {
      OFFSET 43.5653 0 0
      CHANNELS 3 Zrotation Xrotation Yrotation
      JOINT RightFoot
      {
        OFFSET 40.6238 0 0
        CHANNELS 3 Zrotation Xrotation Yrotation
        JOINT RightToeBase
        {
          OFFSET 12.7242 0 0
          CHANNELS 3 Zrotation Xrotation Yrotation
          End Site
          {
            OFFSET 0 0 0
          }
        }
      }
    }
  }
  JOINT Spine
  {
    OFFSET 0.165834 0.87714 6.61349
    CHANNELS 3 Zrotation Xrotation Yrotation
    JOINT Spine1
    {
      OFFSET 7.38963 1.71661e-005 0
      CHANNELS 3 Zrotation Xrotation Yrotation
      JOINT Spine2
      {
        OFFSET 11.9445 1.14441e-005 0
        CHANNELS 3 Zrotation Xrotation Yrotation
        JOINT Spine3
        {
          OFFSET 14.7254 4.19617e-005 0
          CHANNELS 3 Zrotation Xrotation Yrotation
          JOINT Spine4
          {
            OFFSET 10.9679 0 0
            CHANNELS 3 Zrotation Xrotation Yrotation
            JOINT RightShoulder
            {
              OFFSET 2.46616 -1.6653 3.69651
              CHANNELS 3 Zrotation Xrotation Yrotation
              JOINT RightArm
              {
                OFFSET 13.0012 0 0
                CHANNELS 3 Zrotation Xrotation Yrotation
                JOINT RightForeArm
                {
                  OFFSET 28.7848 1.52588e-005 0
                  CHANNELS 3 Zrotation Xrotation Yrotation
                  JOINT RightHand
                  {
                    OFFSET 26.5688 1.52588e-005 0
                    CHANNELS 3 Zrotation Xrotation Yrotation
                    End Site
                    {
                      OFFSET 0 0 0
                    }
                  }
                }
              }
            }
            JOINT LeftShoulder
            {
              OFFSET 2.38034 -1.29275 -3.7523
              CHANNELS 3 Zrotation Xrotation Yrotation
              JOINT LeftArm
              {
                OFFSET 16.3182 6.10351e-005 0
                CHANNELS 3 Zrotation Xrotation Yrotation
                JOINT LeftForeArm
                {
                  OFFSET 27.0901 0 0
                  CHANNELS 3 Zrotation Xrotation Yrotation
                  JOINT LeftHand
                  {
                    OFFSET 24.5451 1.52588e-005 0
                    CHANNELS 3 Zrotation Xrotation Yrotation
                    End Site
                    {
                      OFFSET 0 0 0
                    }
                  }
                }
              }
            }
            JOINT Neck
            {
              OFFSET 5.0226 -0.0266342 0
              CHANNELS 3 Zrotation Xrotation Yrotation
              JOINT Head
              {
                OFFSET 6.69364 2.86102e-005 0
                CHANNELS 3 Zrotation Xrotation Yrotation
                End Site
                {
                  OFFSET 0 0 0
                }
              }
            }
          }
        }
      }
    }
  }
}
MOTION
Frames:	6
Frame Time:	0.0416667
136.189 97.2767 -135.892 105.958 45.7223 80.3308 -174.281 10.2109 89.386 -17.3166 19.9485 1.69869 46.8383 -5.65607 16.4997 35.2222 -1.85159 -2.71974 173.75 -15.5908 87.6122 -24.8726 -14.7733 -2.16933 57.6822 1.7133 9.28814 56.8252 -3.92566 0.910477 0.563599 7.69835 -90.0763 11.4789 1.08568 -0.262615 -0.191619 1.07305 -0.310157 -22.7304 1.11444 0.0758582 -2.71776 1.11439 0.0758409 101.592 -50.7307 -83.0524 28.1117 -6.54655 -5.65313 0.755493 -2.94243 -25.2363 -15.3554 -0.335831 -2.7058 -79.7186 -52.6886 94.1151 -25.081 10.5504 -3.23958 -0.480995 23.6404 -0.308174 -8.91994 -0.535902 3.40421 -16.237 0.426587 -3.88765 -21.2393 -0.461671 5.67178 
137.287 95.6844 -137.583 105.008 46.1276 79.549 -175.288 14.8541 87.6012 -27.9048 16.3193 1.56075 52.7632 -2.32792 16.8081 37.8513 -2.69464 -3.98472 173.193 0.377379 85.1849 -51.5887 -10.7376 -2.27749 45.866 7.19589 18.2736 52.1 -2.82815 5.48038 0.566712 7.69746 -89.7413 11.4778 1.24854 0.389817 -0.19255 1.26447 0.334475 -22.7311 1.07365 0.747059 -2.71848 1.07366 0.747057 102.366 -50.5962 -81.8558 31.4999 -2.22541 -3.94512 -1.03811 -8.07628 -17.5093 -12.0821 -0.593344 0.481631 -81.6004 -51.7419 91.2843 -24.2015 12.3103 -8.62759 0.353934 27.7663 -2.66027 0.269935 -0.0108178 -2.03665 -15.831 0.467785 -4.33934 -22.3093 -0.632382 6.68551 
140.933 96.2554 -142.661 106.167 46.144 77.9315 -174.185 9.96876 87.3305 -28.7193 16.8011 0.609808 58.496 0.509886 17.5635 36.6683 -2.30463 -3.49371 172.58 12.4149 84.3839 -62.9479 -9.55213 -2.20696 44.081 7.37507 14.2688 48.1991 -2.73736 1.22828 0.327239 7.91901 -89.5844 11.0332 0.843975 0.742301 -0.637674 0.875805 0.704427 -23.1722 0.581868 0.96161 -3.15955 0.581876 0.961616 102.157 -50.6877 -82.18 32.9545 -1.20416 -3.30937 -0.575191 -10.0913 -11.6895 -10.9435 -0.565643 0.887623 -81.6325 -51.8645 91.2437 -20.6268 14.3311 -15.1473 3.64991 23.2436 -10.1987 3.37559 -0.075912 -4.2179 -14.4939 1.71816 -3.35364 -21.7966 0.273125 9.36057 
144.432 97.1891 -146.804 106.408 49.6383 79.0609 -174.466 6.67043 88.6073 -28.236 18.772 1.93651 61.0661 2.20528 17.1401 36.3167 -2.19174 -3.334 171.695 17.9432 86.677 -55.6844 -7.59022 0.00279497 48.5494 5.86793 15.0084 45.7078 -2.45149 -0.228534 -0.0720767 8.00747 -89.7865 10.8591 -0.0448157 0.42931 -0.811943 -0.0258869 0.430862 -23.3466 -0.171772 0.395991 -3.33392 -0.171762 0.395991 101.919 -50.8958 -82.5472 33.4553 0.127243 -1.58903 -0.955497 -11.4315 -10.3061 -9.79454 -0.529321 1.15332 -81.8761 -49.997 90.7469 -20.166 13.9905 -23.0302 7.55328 23.1895 -15.6485 6.09149 -0.106752 -4.6113 -15.349 1.72502 -2.84528 -22.0089 0.258791 9.19699 
147.947 97.8219 -150.542 105.377 52.8196 79.6364 -174.373 3.45267 89.131 -25.8104 20.5216 2.39225 62.4095 3.27944 16.539 37.1178 -2.4591 -3.4711 172.52 17.7389 87.5699 -32.8886 -8.20583 1.69963 51.9476 4.89722 13.8428 46.4998 -2.58891 -0.786124 -0.367643 7.97764 -89.8194 10.9198 -0.648343 0.420539 -0.751045 -0.629208 0.448664 -23.2873 -0.744767 0.206237 -3.27468 -0.744757 0.206235 102.404 -51.1059 -81.7997 34.014 0.635168 -0.443235 -1.06025 -11.3773 -10.0363 -10.1549 -0.522003 0.833474 -81.8082 -48.3313 90.7287 -18.4906 14.7878 -28.1791 9.22559 18.1838 -21.3843 9.27531 -0.194659 -5.39077 -14.8593 1.53161 -3.38238 -23.0489 0.097713 8.58906 
151.848 98.348 -154.533 105.328 55.1018 77.9884 -174.412 -1.33947 88.0798 -21.5648 23.6455 2.43994 61.2724 3.35934 17.0702 41.0433 -3.79424 -1.58853 176.347 13.5069 86.6145 -11.7354 -3.41622 -0.552715 51.5158 5.53451 18.4583 42.9325 -2.06183 -1.16861 -0.460186 7.90505 -89.7755 11.0655 -0.81185 0.525037 -0.60528 -0.787938 0.560255 -23.1422 -0.932107 0.25676 -3.12954 -0.932094 0.256758 102.333 -50.8058 -81.9073 34.9833 1.16878 0.832196 -1.30932 -8.97659 -11.1458 -9.36468 -0.519859 1.34008 -81.9002 -48.0222 90.5622 -16.714 15.5933 -30.4213 11.4832 17.5138 -26.3725 9.56989 -0.265064 -6.04312 -15.9592 1.00416 -2.69795 -22.4292 -0.277095 7.73138 
